<mxfile host="Electron" agent="Mozilla/5.0 (X11; Linux x86_64) AppleWebKit/537.36 (KHTML, like Gecko) draw.io/26.0.4 Chrome/128.0.6613.186 Electron/32.2.5 Safari/537.36" version="26.0.4">
  <diagram name="Page-1" id="B__OqG1h6MkVJiU8hbjj">
    <mxGraphModel dx="1114" dy="1198" grid="1" gridSize="10" guides="1" tooltips="1" connect="1" arrows="1" fold="1" page="1" pageScale="1" pageWidth="850" pageHeight="1100" math="0" shadow="0">
      <root>
        <mxCell id="0" />
        <mxCell id="1" parent="0" />
        <mxCell id="aQVrr_XlFxqmN04ao_-m-1" value="Region" style="points=[[0,0],[0.25,0],[0.5,0],[0.75,0],[1,0],[1,0.25],[1,0.5],[1,0.75],[1,1],[0.75,1],[0.5,1],[0.25,1],[0,1],[0,0.75],[0,0.5],[0,0.25]];outlineConnect=0;gradientColor=none;html=1;whiteSpace=wrap;fontSize=12;fontStyle=0;container=1;pointerEvents=0;collapsible=0;recursiveResize=0;shape=mxgraph.aws4.group;grIcon=mxgraph.aws4.group_region;strokeColor=#00A4A6;fillColor=none;verticalAlign=top;align=left;spacingLeft=30;fontColor=#147EBA;dashed=1;" vertex="1" parent="1">
          <mxGeometry x="230" y="300" width="350" height="320" as="geometry" />
        </mxCell>
        <mxCell id="aQVrr_XlFxqmN04ao_-m-2" value="Availability Zone" style="fillColor=none;strokeColor=#147EBA;dashed=1;verticalAlign=top;fontStyle=0;fontColor=#147EBA;whiteSpace=wrap;html=1;" vertex="1" parent="aQVrr_XlFxqmN04ao_-m-1">
          <mxGeometry x="20" y="40" width="100" height="260" as="geometry" />
        </mxCell>
        <mxCell id="aQVrr_XlFxqmN04ao_-m-9" value="&amp;nbsp;&lt;b&gt;Free&lt;/b&gt; for traffic in&amp;nbsp;" style="edgeStyle=orthogonalEdgeStyle;rounded=0;orthogonalLoop=1;jettySize=auto;html=1;" edge="1" parent="aQVrr_XlFxqmN04ao_-m-1" target="aQVrr_XlFxqmN04ao_-m-4">
          <mxGeometry relative="1" as="geometry">
            <mxPoint x="-200" y="114" as="sourcePoint" />
          </mxGeometry>
        </mxCell>
        <mxCell id="aQVrr_XlFxqmN04ao_-m-11" value="&lt;b&gt;Free&lt;/b&gt; if using&lt;div&gt;private IP&lt;/div&gt;" style="edgeStyle=orthogonalEdgeStyle;rounded=0;orthogonalLoop=1;jettySize=auto;html=1;startArrow=classic;startFill=1;strokeColor=#00CC00;" edge="1" parent="aQVrr_XlFxqmN04ao_-m-1" source="aQVrr_XlFxqmN04ao_-m-4" target="aQVrr_XlFxqmN04ao_-m-10">
          <mxGeometry relative="1" as="geometry" />
        </mxCell>
        <mxCell id="aQVrr_XlFxqmN04ao_-m-4" value="" style="sketch=0;outlineConnect=0;fontColor=#232F3E;gradientColor=none;fillColor=#ED7100;strokeColor=none;dashed=0;verticalLabelPosition=bottom;verticalAlign=top;align=center;html=1;fontSize=12;fontStyle=0;aspect=fixed;pointerEvents=1;shape=mxgraph.aws4.instance2;" vertex="1" parent="aQVrr_XlFxqmN04ao_-m-1">
          <mxGeometry x="46" y="90" width="48" height="48" as="geometry" />
        </mxCell>
        <mxCell id="aQVrr_XlFxqmN04ao_-m-16" value="&lt;b&gt;$0.01&lt;/b&gt; if&lt;div&gt;Using private IP&lt;/div&gt;" style="edgeStyle=orthogonalEdgeStyle;rounded=0;orthogonalLoop=1;jettySize=auto;html=1;startArrow=classic;startFill=1;strokeColor=#0000FF;" edge="1" parent="aQVrr_XlFxqmN04ao_-m-1" source="aQVrr_XlFxqmN04ao_-m-10" target="aQVrr_XlFxqmN04ao_-m-15">
          <mxGeometry relative="1" as="geometry" />
        </mxCell>
        <mxCell id="aQVrr_XlFxqmN04ao_-m-10" value="" style="sketch=0;outlineConnect=0;fontColor=#232F3E;gradientColor=none;fillColor=#ED7100;strokeColor=none;dashed=0;verticalLabelPosition=bottom;verticalAlign=top;align=center;html=1;fontSize=12;fontStyle=0;aspect=fixed;pointerEvents=1;shape=mxgraph.aws4.instance2;" vertex="1" parent="aQVrr_XlFxqmN04ao_-m-1">
          <mxGeometry x="46" y="220" width="48" height="48" as="geometry" />
        </mxCell>
        <mxCell id="aQVrr_XlFxqmN04ao_-m-12" value="Availability Zone" style="fillColor=none;strokeColor=#147EBA;dashed=1;verticalAlign=top;fontStyle=0;fontColor=#147EBA;whiteSpace=wrap;html=1;" vertex="1" parent="aQVrr_XlFxqmN04ao_-m-1">
          <mxGeometry x="230" y="40" width="100" height="260" as="geometry" />
        </mxCell>
        <mxCell id="aQVrr_XlFxqmN04ao_-m-17" style="edgeStyle=orthogonalEdgeStyle;rounded=0;orthogonalLoop=1;jettySize=auto;html=1;strokeColor=#FF8800;" edge="1" parent="aQVrr_XlFxqmN04ao_-m-1" source="aQVrr_XlFxqmN04ao_-m-15" target="aQVrr_XlFxqmN04ao_-m-10">
          <mxGeometry relative="1" as="geometry">
            <Array as="points">
              <mxPoint x="290" y="360" />
              <mxPoint x="80" y="360" />
            </Array>
          </mxGeometry>
        </mxCell>
        <mxCell id="aQVrr_XlFxqmN04ao_-m-18" value="&lt;b&gt;$0.02&lt;/b&gt;&amp;nbsp;if u&lt;span style=&quot;background-color: light-dark(#ffffff, var(--ge-dark-color, #121212)); color: light-dark(rgb(0, 0, 0), rgb(255, 255, 255));&quot;&gt;sing&lt;/span&gt;&lt;div&gt;&lt;span style=&quot;background-color: light-dark(#ffffff, var(--ge-dark-color, #121212)); color: light-dark(rgb(0, 0, 0), rgb(255, 255, 255));&quot;&gt;Public IP / Elastic IP&lt;/span&gt;&lt;/div&gt;" style="edgeLabel;html=1;align=center;verticalAlign=middle;resizable=0;points=[];" vertex="1" connectable="0" parent="aQVrr_XlFxqmN04ao_-m-17">
          <mxGeometry x="0.0406" y="1" relative="1" as="geometry">
            <mxPoint as="offset" />
          </mxGeometry>
        </mxCell>
        <mxCell id="aQVrr_XlFxqmN04ao_-m-15" value="" style="sketch=0;outlineConnect=0;fontColor=#232F3E;gradientColor=none;fillColor=#ED7100;strokeColor=none;dashed=0;verticalLabelPosition=bottom;verticalAlign=top;align=center;html=1;fontSize=12;fontStyle=0;aspect=fixed;pointerEvents=1;shape=mxgraph.aws4.instance2;" vertex="1" parent="aQVrr_XlFxqmN04ao_-m-1">
          <mxGeometry x="256" y="220" width="48" height="48" as="geometry" />
        </mxCell>
        <mxCell id="aQVrr_XlFxqmN04ao_-m-5" value="Region" style="points=[[0,0],[0.25,0],[0.5,0],[0.75,0],[1,0],[1,0.25],[1,0.5],[1,0.75],[1,1],[0.75,1],[0.5,1],[0.25,1],[0,1],[0,0.75],[0,0.5],[0,0.25]];outlineConnect=0;gradientColor=none;html=1;whiteSpace=wrap;fontSize=12;fontStyle=0;container=1;pointerEvents=0;collapsible=0;recursiveResize=0;shape=mxgraph.aws4.group;grIcon=mxgraph.aws4.group_region;strokeColor=#00A4A6;fillColor=none;verticalAlign=top;align=left;spacingLeft=30;fontColor=#147EBA;dashed=1;" vertex="1" parent="1">
          <mxGeometry x="680" y="300" width="140" height="320" as="geometry" />
        </mxCell>
        <mxCell id="aQVrr_XlFxqmN04ao_-m-21" value="Availability Zone" style="fillColor=none;strokeColor=#147EBA;dashed=1;verticalAlign=top;fontStyle=0;fontColor=#147EBA;whiteSpace=wrap;html=1;" vertex="1" parent="aQVrr_XlFxqmN04ao_-m-5">
          <mxGeometry x="20" y="40" width="100" height="260" as="geometry" />
        </mxCell>
        <mxCell id="aQVrr_XlFxqmN04ao_-m-22" value="" style="sketch=0;outlineConnect=0;fontColor=#232F3E;gradientColor=none;fillColor=#ED7100;strokeColor=none;dashed=0;verticalLabelPosition=bottom;verticalAlign=top;align=center;html=1;fontSize=12;fontStyle=0;aspect=fixed;pointerEvents=1;shape=mxgraph.aws4.instance2;" vertex="1" parent="aQVrr_XlFxqmN04ao_-m-5">
          <mxGeometry x="46" y="220" width="48" height="48" as="geometry" />
        </mxCell>
        <mxCell id="aQVrr_XlFxqmN04ao_-m-23" style="edgeStyle=orthogonalEdgeStyle;rounded=0;orthogonalLoop=1;jettySize=auto;html=1;" edge="1" parent="1" source="aQVrr_XlFxqmN04ao_-m-15" target="aQVrr_XlFxqmN04ao_-m-22">
          <mxGeometry relative="1" as="geometry" />
        </mxCell>
        <mxCell id="aQVrr_XlFxqmN04ao_-m-24" value="&lt;b&gt;$0.02&lt;/b&gt;&lt;div&gt;Inter-Region&lt;/div&gt;" style="edgeLabel;html=1;align=center;verticalAlign=middle;resizable=0;points=[];" vertex="1" connectable="0" parent="aQVrr_XlFxqmN04ao_-m-23">
          <mxGeometry x="-0.093" y="-2" relative="1" as="geometry">
            <mxPoint x="9" y="-2" as="offset" />
          </mxGeometry>
        </mxCell>
      </root>
    </mxGraphModel>
  </diagram>
</mxfile>
